# xmcd CD database file generated by OrangeCD 5.0
#
# Track frame offsets:
#	150
#	16745
#	33302
#	46932
#
# Disc length: 872 seconds
#
# Revision: 0
# Processed by: cddbd v1.4PL0 Copyright (c) Steve Scherf et al.
# Submitted via: OrangeCD 5.0
#
DISCID=22036604
DTITLE=Travis, Randy - Deeper Than The Holler
DYEAR=1988
DGENRE=Country
TTITLE0=Deeper Than The Holler
TTITLE1=I Told You So
TTITLE2=1982
TTITLE3=No Place Like Home
EXTD=
EXTT0=
EXTT1=
EXTT2=
EXTT3=
PLAYORDER=
